<mxfile host="app.diagrams.net" modified="2021-07-23T06:39:50.225Z" agent="5.0 (Windows NT 10.0; Win64; x64) AppleWebKit/537.36 (KHTML, like Gecko) Chrome/91.0.4472.124 Safari/537.36 Edg/91.0.864.67" etag="NuSjuM-MLWzoq6ZnCHIn" version="14.9.0" type="github">
  <diagram name="Page-1" id="8ce9d11a-91a2-4d17-14d8-a56ed91bf033">
    <mxGraphModel dx="1673" dy="1723" grid="1" gridSize="10" guides="1" tooltips="1" connect="1" arrows="1" fold="1" page="1" pageScale="1" pageWidth="1169" pageHeight="827" background="none" math="0" shadow="0">
      <root>
        <mxCell id="0" />
        <mxCell id="1" parent="0" />
        <mxCell id="AwNw5JYC8Uk12WGBqzZV-2" value="&lt;font style=&quot;font-size: 48px&quot;&gt;手动创建工单&lt;/font&gt;" style="text;html=1;strokeColor=none;fillColor=none;align=center;verticalAlign=middle;whiteSpace=wrap;rounded=0;" parent="1" vertex="1">
          <mxGeometry x="70" y="-100" width="320" height="50" as="geometry" />
        </mxCell>
        <mxCell id="AwNw5JYC8Uk12WGBqzZV-77" style="edgeStyle=orthogonalEdgeStyle;rounded=0;orthogonalLoop=1;jettySize=auto;html=1;entryX=0;entryY=0.5;entryDx=0;entryDy=0;" parent="1" source="AwNw5JYC8Uk12WGBqzZV-7" target="AwNw5JYC8Uk12WGBqzZV-25" edge="1">
          <mxGeometry relative="1" as="geometry" />
        </mxCell>
        <mxCell id="qzluck5pf1jZKNph7DdI-55" style="edgeStyle=orthogonalEdgeStyle;rounded=0;orthogonalLoop=1;jettySize=auto;html=1;entryX=0.5;entryY=1;entryDx=0;entryDy=0;" parent="1" source="AwNw5JYC8Uk12WGBqzZV-7" target="qzluck5pf1jZKNph7DdI-54" edge="1">
          <mxGeometry relative="1" as="geometry" />
        </mxCell>
        <mxCell id="AwNw5JYC8Uk12WGBqzZV-7" value="创建工单&lt;br&gt;工单编辑页面&lt;br&gt;完成编辑" style="rounded=1;whiteSpace=wrap;html=1;" parent="1" vertex="1">
          <mxGeometry x="60" y="462" width="100" height="50" as="geometry" />
        </mxCell>
        <mxCell id="AwNw5JYC8Uk12WGBqzZV-78" style="rounded=0;orthogonalLoop=1;jettySize=auto;html=1;entryX=0;entryY=0.5;entryDx=0;entryDy=0;" parent="1" source="AwNw5JYC8Uk12WGBqzZV-25" target="AwNw5JYC8Uk12WGBqzZV-26" edge="1">
          <mxGeometry relative="1" as="geometry" />
        </mxCell>
        <mxCell id="AwNw5JYC8Uk12WGBqzZV-79" style="edgeStyle=none;rounded=0;orthogonalLoop=1;jettySize=auto;html=1;entryX=0;entryY=0.5;entryDx=0;entryDy=0;" parent="1" source="AwNw5JYC8Uk12WGBqzZV-25" target="AwNw5JYC8Uk12WGBqzZV-41" edge="1">
          <mxGeometry relative="1" as="geometry" />
        </mxCell>
        <mxCell id="qzluck5pf1jZKNph7DdI-61" style="edgeStyle=orthogonalEdgeStyle;rounded=0;orthogonalLoop=1;jettySize=auto;html=1;entryX=0.5;entryY=1;entryDx=0;entryDy=0;" parent="1" source="AwNw5JYC8Uk12WGBqzZV-25" target="qzluck5pf1jZKNph7DdI-60" edge="1">
          <mxGeometry relative="1" as="geometry" />
        </mxCell>
        <mxCell id="AwNw5JYC8Uk12WGBqzZV-25" value="提交审核" style="rounded=1;whiteSpace=wrap;html=1;" parent="1" vertex="1">
          <mxGeometry x="200" y="462" width="100" height="50" as="geometry" />
        </mxCell>
        <mxCell id="qzluck5pf1jZKNph7DdI-65" style="edgeStyle=orthogonalEdgeStyle;rounded=0;orthogonalLoop=1;jettySize=auto;html=1;entryX=0.5;entryY=1;entryDx=0;entryDy=0;" parent="1" source="AwNw5JYC8Uk12WGBqzZV-26" target="qzluck5pf1jZKNph7DdI-64" edge="1">
          <mxGeometry relative="1" as="geometry" />
        </mxCell>
        <mxCell id="iUGf3dsUvjw6NNk_qqSn-2" style="edgeStyle=none;rounded=0;orthogonalLoop=1;jettySize=auto;html=1;entryX=0;entryY=0.5;entryDx=0;entryDy=0;" edge="1" parent="1" source="AwNw5JYC8Uk12WGBqzZV-26" target="AwNw5JYC8Uk12WGBqzZV-30">
          <mxGeometry relative="1" as="geometry" />
        </mxCell>
        <mxCell id="iUGf3dsUvjw6NNk_qqSn-3" style="edgeStyle=none;rounded=0;orthogonalLoop=1;jettySize=auto;html=1;entryX=0;entryY=0.5;entryDx=0;entryDy=0;" edge="1" parent="1" source="AwNw5JYC8Uk12WGBqzZV-26" target="AwNw5JYC8Uk12WGBqzZV-31">
          <mxGeometry relative="1" as="geometry" />
        </mxCell>
        <mxCell id="AwNw5JYC8Uk12WGBqzZV-26" value="审核通过" style="rounded=1;whiteSpace=wrap;html=1;" parent="1" vertex="1">
          <mxGeometry x="343" y="317" width="100" height="50" as="geometry" />
        </mxCell>
        <mxCell id="AwNw5JYC8Uk12WGBqzZV-87" style="edgeStyle=none;rounded=0;orthogonalLoop=1;jettySize=auto;html=1;entryX=0;entryY=0.5;entryDx=0;entryDy=0;" parent="1" source="AwNw5JYC8Uk12WGBqzZV-32" target="AwNw5JYC8Uk12WGBqzZV-34" edge="1">
          <mxGeometry relative="1" as="geometry" />
        </mxCell>
        <mxCell id="qzluck5pf1jZKNph7DdI-84" style="edgeStyle=orthogonalEdgeStyle;rounded=0;orthogonalLoop=1;jettySize=auto;html=1;entryX=0.5;entryY=1;entryDx=0;entryDy=0;" parent="1" source="AwNw5JYC8Uk12WGBqzZV-32" target="qzluck5pf1jZKNph7DdI-68" edge="1">
          <mxGeometry relative="1" as="geometry" />
        </mxCell>
        <mxCell id="AwNw5JYC8Uk12WGBqzZV-32" value="仓库收到用户机&lt;br&gt;确认收货" style="rounded=1;whiteSpace=wrap;html=1;" parent="1" vertex="1">
          <mxGeometry x="625" y="317" width="100" height="50" as="geometry" />
        </mxCell>
        <mxCell id="AwNw5JYC8Uk12WGBqzZV-33" value="" style="group" parent="1" vertex="1" connectable="0">
          <mxGeometry x="485" y="287" width="100" height="110" as="geometry" />
        </mxCell>
        <mxCell id="AwNw5JYC8Uk12WGBqzZV-30" value="用户自行寄回&lt;br&gt;&lt;strike&gt;（短信通知）&lt;/strike&gt;" style="rounded=1;whiteSpace=wrap;html=1;" parent="AwNw5JYC8Uk12WGBqzZV-33" vertex="1">
          <mxGeometry width="100" height="50" as="geometry" />
        </mxCell>
        <mxCell id="AwNw5JYC8Uk12WGBqzZV-31" value="安排上门取件" style="rounded=1;whiteSpace=wrap;html=1;" parent="AwNw5JYC8Uk12WGBqzZV-33" vertex="1">
          <mxGeometry y="60" width="100" height="50" as="geometry" />
        </mxCell>
        <mxCell id="AwNw5JYC8Uk12WGBqzZV-88" style="edgeStyle=none;rounded=0;orthogonalLoop=1;jettySize=auto;html=1;entryX=0;entryY=0.5;entryDx=0;entryDy=0;" parent="1" source="AwNw5JYC8Uk12WGBqzZV-34" target="AwNw5JYC8Uk12WGBqzZV-35" edge="1">
          <mxGeometry relative="1" as="geometry" />
        </mxCell>
        <mxCell id="qzluck5pf1jZKNph7DdI-85" style="edgeStyle=orthogonalEdgeStyle;rounded=0;orthogonalLoop=1;jettySize=auto;html=1;entryX=0.5;entryY=1;entryDx=0;entryDy=0;" parent="1" source="AwNw5JYC8Uk12WGBqzZV-34" target="qzluck5pf1jZKNph7DdI-71" edge="1">
          <mxGeometry relative="1" as="geometry" />
        </mxCell>
        <mxCell id="AwNw5JYC8Uk12WGBqzZV-34" value="SAP确认入库&lt;br&gt;入库完成" style="rounded=1;whiteSpace=wrap;html=1;" parent="1" vertex="1">
          <mxGeometry x="765" y="317" width="100" height="50" as="geometry" />
        </mxCell>
        <mxCell id="AwNw5JYC8Uk12WGBqzZV-89" style="edgeStyle=none;rounded=0;orthogonalLoop=1;jettySize=auto;html=1;entryX=0;entryY=0.5;entryDx=0;entryDy=0;" parent="1" source="AwNw5JYC8Uk12WGBqzZV-35" edge="1">
          <mxGeometry relative="1" as="geometry">
            <mxPoint x="1045" y="342" as="targetPoint" />
          </mxGeometry>
        </mxCell>
        <mxCell id="AwNw5JYC8Uk12WGBqzZV-35" value="WMS置换机出库申请" style="rounded=1;whiteSpace=wrap;html=1;" parent="1" vertex="1">
          <mxGeometry x="905" y="317" width="100" height="50" as="geometry" />
        </mxCell>
        <mxCell id="AwNw5JYC8Uk12WGBqzZV-91" style="edgeStyle=none;rounded=0;orthogonalLoop=1;jettySize=auto;html=1;entryX=0;entryY=0.5;entryDx=0;entryDy=0;" parent="1" source="AwNw5JYC8Uk12WGBqzZV-38" target="AwNw5JYC8Uk12WGBqzZV-39" edge="1">
          <mxGeometry relative="1" as="geometry" />
        </mxCell>
        <mxCell id="qzluck5pf1jZKNph7DdI-88" style="edgeStyle=orthogonalEdgeStyle;rounded=0;orthogonalLoop=1;jettySize=auto;html=1;entryX=0.5;entryY=1;entryDx=0;entryDy=0;" parent="1" source="AwNw5JYC8Uk12WGBqzZV-38" target="qzluck5pf1jZKNph7DdI-80" edge="1">
          <mxGeometry relative="1" as="geometry" />
        </mxCell>
        <mxCell id="AwNw5JYC8Uk12WGBqzZV-38" value="用户收到置换机&lt;br&gt;签收快递&lt;br&gt;（短信通知）" style="rounded=1;whiteSpace=wrap;html=1;" parent="1" vertex="1">
          <mxGeometry x="1325" y="317" width="100" height="50" as="geometry" />
        </mxCell>
        <mxCell id="AwNw5JYC8Uk12WGBqzZV-92" style="edgeStyle=none;rounded=0;orthogonalLoop=1;jettySize=auto;html=1;entryX=0;entryY=0.5;entryDx=0;entryDy=0;" parent="1" source="AwNw5JYC8Uk12WGBqzZV-39" target="AwNw5JYC8Uk12WGBqzZV-66" edge="1">
          <mxGeometry relative="1" as="geometry" />
        </mxCell>
        <mxCell id="AwNw5JYC8Uk12WGBqzZV-39" value="该工单已完成" style="rounded=1;whiteSpace=wrap;html=1;" parent="1" vertex="1">
          <mxGeometry x="1465" y="317" width="100" height="50" as="geometry" />
        </mxCell>
        <mxCell id="AwNw5JYC8Uk12WGBqzZV-108" style="edgeStyle=none;rounded=0;orthogonalLoop=1;jettySize=auto;html=1;entryX=0;entryY=0.5;entryDx=0;entryDy=0;" parent="1" source="AwNw5JYC8Uk12WGBqzZV-41" target="AwNw5JYC8Uk12WGBqzZV-42" edge="1">
          <mxGeometry relative="1" as="geometry" />
        </mxCell>
        <mxCell id="AwNw5JYC8Uk12WGBqzZV-41" value="审核不通过" style="rounded=1;whiteSpace=wrap;html=1;" parent="1" vertex="1">
          <mxGeometry x="343" y="607" width="100" height="50" as="geometry" />
        </mxCell>
        <mxCell id="AwNw5JYC8Uk12WGBqzZV-42" value="重新编辑提交审核&lt;br&gt;审核通过" style="rounded=1;whiteSpace=wrap;html=1;" parent="1" vertex="1">
          <mxGeometry x="485" y="607" width="100" height="50" as="geometry" />
        </mxCell>
        <mxCell id="AwNw5JYC8Uk12WGBqzZV-111" style="edgeStyle=none;rounded=0;orthogonalLoop=1;jettySize=auto;html=1;entryX=0;entryY=0.5;entryDx=0;entryDy=0;" parent="1" target="AwNw5JYC8Uk12WGBqzZV-47" edge="1">
          <mxGeometry relative="1" as="geometry">
            <mxPoint x="584.9999999999995" y="618.5" as="sourcePoint" />
          </mxGeometry>
        </mxCell>
        <mxCell id="AwNw5JYC8Uk12WGBqzZV-112" style="edgeStyle=none;rounded=0;orthogonalLoop=1;jettySize=auto;html=1;entryX=0;entryY=0.5;entryDx=0;entryDy=0;" parent="1" target="AwNw5JYC8Uk12WGBqzZV-48" edge="1">
          <mxGeometry relative="1" as="geometry">
            <mxPoint x="584.9999999999995" y="648.5" as="sourcePoint" />
          </mxGeometry>
        </mxCell>
        <mxCell id="AwNw5JYC8Uk12WGBqzZV-115" style="edgeStyle=none;rounded=0;orthogonalLoop=1;jettySize=auto;html=1;entryX=0;entryY=0.5;entryDx=0;entryDy=0;" parent="1" source="AwNw5JYC8Uk12WGBqzZV-45" target="AwNw5JYC8Uk12WGBqzZV-49" edge="1">
          <mxGeometry relative="1" as="geometry" />
        </mxCell>
        <mxCell id="AwNw5JYC8Uk12WGBqzZV-45" value="仓库收到用户机&lt;br&gt;确认收货" style="rounded=1;whiteSpace=wrap;html=1;" parent="1" vertex="1">
          <mxGeometry x="775" y="607" width="100" height="50" as="geometry" />
        </mxCell>
        <mxCell id="AwNw5JYC8Uk12WGBqzZV-46" value="" style="group" parent="1" vertex="1" connectable="0">
          <mxGeometry x="635" y="580" width="100" height="110" as="geometry" />
        </mxCell>
        <mxCell id="AwNw5JYC8Uk12WGBqzZV-47" value="用户自行寄回&lt;br&gt;（短信通知）" style="rounded=1;whiteSpace=wrap;html=1;" parent="AwNw5JYC8Uk12WGBqzZV-46" vertex="1">
          <mxGeometry width="100" height="50" as="geometry" />
        </mxCell>
        <mxCell id="AwNw5JYC8Uk12WGBqzZV-48" value="安排上门取件" style="rounded=1;whiteSpace=wrap;html=1;" parent="AwNw5JYC8Uk12WGBqzZV-46" vertex="1">
          <mxGeometry y="60" width="100" height="50" as="geometry" />
        </mxCell>
        <mxCell id="AwNw5JYC8Uk12WGBqzZV-116" style="edgeStyle=none;rounded=0;orthogonalLoop=1;jettySize=auto;html=1;" parent="1" source="AwNw5JYC8Uk12WGBqzZV-49" target="AwNw5JYC8Uk12WGBqzZV-50" edge="1">
          <mxGeometry relative="1" as="geometry" />
        </mxCell>
        <mxCell id="AwNw5JYC8Uk12WGBqzZV-49" value="SAP确认入库&lt;br&gt;入库完成" style="rounded=1;whiteSpace=wrap;html=1;" parent="1" vertex="1">
          <mxGeometry x="915" y="607" width="100" height="50" as="geometry" />
        </mxCell>
        <mxCell id="AwNw5JYC8Uk12WGBqzZV-117" style="edgeStyle=none;rounded=0;orthogonalLoop=1;jettySize=auto;html=1;entryX=0;entryY=0.5;entryDx=0;entryDy=0;" parent="1" edge="1">
          <mxGeometry relative="1" as="geometry">
            <mxPoint x="1155" y="632" as="sourcePoint" />
            <mxPoint x="1195" y="632" as="targetPoint" />
          </mxGeometry>
        </mxCell>
        <mxCell id="AwNw5JYC8Uk12WGBqzZV-50" value="WMS置换机出库申请" style="rounded=1;whiteSpace=wrap;html=1;" parent="1" vertex="1">
          <mxGeometry x="1055" y="607" width="100" height="50" as="geometry" />
        </mxCell>
        <mxCell id="AwNw5JYC8Uk12WGBqzZV-66" value="&lt;font style=&quot;font-size: 24px&quot;&gt;结束&lt;/font&gt;" style="rounded=1;whiteSpace=wrap;html=1;" parent="1" vertex="1">
          <mxGeometry x="1605" y="317" width="100" height="50" as="geometry" />
        </mxCell>
        <mxCell id="AwNw5JYC8Uk12WGBqzZV-85" style="edgeStyle=none;rounded=0;orthogonalLoop=1;jettySize=auto;html=1;entryX=0;entryY=0.5;entryDx=0;entryDy=0;" parent="1" source="AwNw5JYC8Uk12WGBqzZV-30" target="AwNw5JYC8Uk12WGBqzZV-32" edge="1">
          <mxGeometry relative="1" as="geometry" />
        </mxCell>
        <mxCell id="AwNw5JYC8Uk12WGBqzZV-86" style="edgeStyle=none;rounded=0;orthogonalLoop=1;jettySize=auto;html=1;entryX=0;entryY=0.5;entryDx=0;entryDy=0;" parent="1" source="AwNw5JYC8Uk12WGBqzZV-31" target="AwNw5JYC8Uk12WGBqzZV-32" edge="1">
          <mxGeometry relative="1" as="geometry" />
        </mxCell>
        <mxCell id="AwNw5JYC8Uk12WGBqzZV-113" style="edgeStyle=none;rounded=0;orthogonalLoop=1;jettySize=auto;html=1;entryX=0;entryY=0.5;entryDx=0;entryDy=0;" parent="1" source="AwNw5JYC8Uk12WGBqzZV-47" target="AwNw5JYC8Uk12WGBqzZV-45" edge="1">
          <mxGeometry relative="1" as="geometry" />
        </mxCell>
        <mxCell id="AwNw5JYC8Uk12WGBqzZV-114" style="edgeStyle=none;rounded=0;orthogonalLoop=1;jettySize=auto;html=1;entryX=0;entryY=0.5;entryDx=0;entryDy=0;" parent="1" source="AwNw5JYC8Uk12WGBqzZV-48" target="AwNw5JYC8Uk12WGBqzZV-45" edge="1">
          <mxGeometry relative="1" as="geometry">
            <mxPoint x="780" y="680" as="targetPoint" />
          </mxGeometry>
        </mxCell>
        <mxCell id="qzluck5pf1jZKNph7DdI-14" style="edgeStyle=orthogonalEdgeStyle;rounded=0;orthogonalLoop=1;jettySize=auto;html=1;entryX=0;entryY=0.5;entryDx=0;entryDy=0;" parent="1" source="qzluck5pf1jZKNph7DdI-11" target="qzluck5pf1jZKNph7DdI-13" edge="1">
          <mxGeometry relative="1" as="geometry" />
        </mxCell>
        <mxCell id="qzluck5pf1jZKNph7DdI-86" style="edgeStyle=orthogonalEdgeStyle;rounded=0;orthogonalLoop=1;jettySize=auto;html=1;entryX=0.5;entryY=1;entryDx=0;entryDy=0;" parent="1" source="qzluck5pf1jZKNph7DdI-11" target="qzluck5pf1jZKNph7DdI-74" edge="1">
          <mxGeometry relative="1" as="geometry" />
        </mxCell>
        <mxCell id="qzluck5pf1jZKNph7DdI-11" value="置换机出库完成&lt;br&gt;" style="rounded=1;whiteSpace=wrap;html=1;" parent="1" vertex="1">
          <mxGeometry x="1045" y="317" width="100" height="50" as="geometry" />
        </mxCell>
        <mxCell id="qzluck5pf1jZKNph7DdI-15" style="edgeStyle=orthogonalEdgeStyle;rounded=0;orthogonalLoop=1;jettySize=auto;html=1;entryX=0;entryY=0.5;entryDx=0;entryDy=0;" parent="1" source="qzluck5pf1jZKNph7DdI-13" target="AwNw5JYC8Uk12WGBqzZV-38" edge="1">
          <mxGeometry relative="1" as="geometry" />
        </mxCell>
        <mxCell id="qzluck5pf1jZKNph7DdI-87" style="edgeStyle=orthogonalEdgeStyle;rounded=0;orthogonalLoop=1;jettySize=auto;html=1;entryX=0.5;entryY=1;entryDx=0;entryDy=0;" parent="1" source="qzluck5pf1jZKNph7DdI-13" target="qzluck5pf1jZKNph7DdI-77" edge="1">
          <mxGeometry relative="1" as="geometry" />
        </mxCell>
        <mxCell id="qzluck5pf1jZKNph7DdI-13" value="&lt;span style=&quot;font-family: &amp;#34;helvetica&amp;#34;&quot;&gt;确认发货&lt;br&gt;用户待收货&lt;/span&gt;&lt;br style=&quot;font-family: &amp;#34;helvetica&amp;#34;&quot;&gt;&lt;span style=&quot;font-family: &amp;#34;helvetica&amp;#34;&quot;&gt;（短信通知）&lt;/span&gt;" style="rounded=1;whiteSpace=wrap;html=1;" parent="1" vertex="1">
          <mxGeometry x="1185" y="317" width="100" height="50" as="geometry" />
        </mxCell>
        <mxCell id="qzluck5pf1jZKNph7DdI-26" style="edgeStyle=none;rounded=0;orthogonalLoop=1;jettySize=auto;html=1;entryX=0;entryY=0.5;entryDx=0;entryDy=0;" parent="1" source="qzluck5pf1jZKNph7DdI-27" target="qzluck5pf1jZKNph7DdI-29" edge="1">
          <mxGeometry relative="1" as="geometry" />
        </mxCell>
        <mxCell id="qzluck5pf1jZKNph7DdI-27" value="用户收到置换机&lt;br&gt;签收快递" style="rounded=1;whiteSpace=wrap;html=1;" parent="1" vertex="1">
          <mxGeometry x="1476" y="608" width="100" height="50" as="geometry" />
        </mxCell>
        <mxCell id="qzluck5pf1jZKNph7DdI-28" style="edgeStyle=none;rounded=0;orthogonalLoop=1;jettySize=auto;html=1;entryX=0;entryY=0.5;entryDx=0;entryDy=0;" parent="1" source="qzluck5pf1jZKNph7DdI-29" target="qzluck5pf1jZKNph7DdI-30" edge="1">
          <mxGeometry relative="1" as="geometry" />
        </mxCell>
        <mxCell id="qzluck5pf1jZKNph7DdI-29" value="该工单已完成" style="rounded=1;whiteSpace=wrap;html=1;" parent="1" vertex="1">
          <mxGeometry x="1616" y="608" width="100" height="50" as="geometry" />
        </mxCell>
        <mxCell id="qzluck5pf1jZKNph7DdI-30" value="&lt;font style=&quot;font-size: 24px&quot;&gt;结束&lt;/font&gt;" style="rounded=1;whiteSpace=wrap;html=1;" parent="1" vertex="1">
          <mxGeometry x="1756" y="608" width="100" height="50" as="geometry" />
        </mxCell>
        <mxCell id="qzluck5pf1jZKNph7DdI-31" style="edgeStyle=orthogonalEdgeStyle;rounded=0;orthogonalLoop=1;jettySize=auto;html=1;entryX=0;entryY=0.5;entryDx=0;entryDy=0;" parent="1" source="qzluck5pf1jZKNph7DdI-32" target="qzluck5pf1jZKNph7DdI-34" edge="1">
          <mxGeometry relative="1" as="geometry" />
        </mxCell>
        <mxCell id="qzluck5pf1jZKNph7DdI-32" value="置换机出库完成&lt;br&gt;" style="rounded=1;whiteSpace=wrap;html=1;" parent="1" vertex="1">
          <mxGeometry x="1196" y="608" width="100" height="50" as="geometry" />
        </mxCell>
        <mxCell id="qzluck5pf1jZKNph7DdI-33" style="edgeStyle=orthogonalEdgeStyle;rounded=0;orthogonalLoop=1;jettySize=auto;html=1;entryX=0;entryY=0.5;entryDx=0;entryDy=0;" parent="1" source="qzluck5pf1jZKNph7DdI-34" target="qzluck5pf1jZKNph7DdI-27" edge="1">
          <mxGeometry relative="1" as="geometry" />
        </mxCell>
        <mxCell id="qzluck5pf1jZKNph7DdI-34" value="&lt;span style=&quot;font-family: &amp;#34;helvetica&amp;#34;&quot;&gt;确认发货&lt;br&gt;用户待收货&lt;/span&gt;&lt;br style=&quot;font-family: &amp;#34;helvetica&amp;#34;&quot;&gt;&lt;span style=&quot;font-family: &amp;#34;helvetica&amp;#34;&quot;&gt;（短信通知）&lt;/span&gt;" style="rounded=1;whiteSpace=wrap;html=1;" parent="1" vertex="1">
          <mxGeometry x="1336" y="608" width="100" height="50" as="geometry" />
        </mxCell>
        <mxCell id="qzluck5pf1jZKNph7DdI-35" value="&lt;font color=&quot;#00cc00&quot;&gt;状态：编辑中&lt;/font&gt;" style="text;html=1;strokeColor=none;fillColor=none;align=center;verticalAlign=middle;whiteSpace=wrap;rounded=0;" parent="1" vertex="1">
          <mxGeometry x="70" y="512" width="80" height="20" as="geometry" />
        </mxCell>
        <mxCell id="qzluck5pf1jZKNph7DdI-36" value="&lt;font color=&quot;#00cc00&quot;&gt;状态：待收货&lt;/font&gt;" style="text;html=1;strokeColor=none;fillColor=none;align=center;verticalAlign=middle;whiteSpace=wrap;rounded=0;" parent="1" vertex="1">
          <mxGeometry x="353" y="367" width="80" height="20" as="geometry" />
        </mxCell>
        <mxCell id="qzluck5pf1jZKNph7DdI-37" value="&lt;font color=&quot;#00cc00&quot;&gt;状态：审核驳回&lt;/font&gt;" style="text;html=1;strokeColor=none;fillColor=none;align=center;verticalAlign=middle;whiteSpace=wrap;rounded=0;" parent="1" vertex="1">
          <mxGeometry x="349.5" y="657" width="87" height="20" as="geometry" />
        </mxCell>
        <mxCell id="qzluck5pf1jZKNph7DdI-40" value="&lt;font color=&quot;#00cc00&quot;&gt;状态：待审核&lt;/font&gt;" style="text;html=1;strokeColor=none;fillColor=none;align=center;verticalAlign=middle;whiteSpace=wrap;rounded=0;" parent="1" vertex="1">
          <mxGeometry x="210" y="512" width="80" height="20" as="geometry" />
        </mxCell>
        <mxCell id="qzluck5pf1jZKNph7DdI-41" value="&lt;font color=&quot;#00cc00&quot;&gt;状态：已收货&lt;/font&gt;" style="text;html=1;strokeColor=none;fillColor=none;align=center;verticalAlign=middle;whiteSpace=wrap;rounded=0;" parent="1" vertex="1">
          <mxGeometry x="635" y="367" width="80" height="20" as="geometry" />
        </mxCell>
        <mxCell id="qzluck5pf1jZKNph7DdI-42" value="&lt;font color=&quot;#00cc00&quot;&gt;状态：已收货&lt;/font&gt;" style="text;html=1;strokeColor=none;fillColor=none;align=center;verticalAlign=middle;whiteSpace=wrap;rounded=0;" parent="1" vertex="1">
          <mxGeometry x="775" y="367" width="80" height="20" as="geometry" />
        </mxCell>
        <mxCell id="qzluck5pf1jZKNph7DdI-44" value="&lt;font color=&quot;#00cc00&quot;&gt;状态：待发货&lt;/font&gt;" style="text;html=1;strokeColor=none;fillColor=none;align=center;verticalAlign=middle;whiteSpace=wrap;rounded=0;" parent="1" vertex="1">
          <mxGeometry x="1055" y="367" width="80" height="20" as="geometry" />
        </mxCell>
        <mxCell id="qzluck5pf1jZKNph7DdI-45" value="&lt;font color=&quot;#00cc00&quot;&gt;状态：已发货&lt;/font&gt;" style="text;html=1;strokeColor=none;fillColor=none;align=center;verticalAlign=middle;whiteSpace=wrap;rounded=0;" parent="1" vertex="1">
          <mxGeometry x="1195" y="367" width="80" height="20" as="geometry" />
        </mxCell>
        <mxCell id="qzluck5pf1jZKNph7DdI-47" value="&lt;font color=&quot;#00cc00&quot;&gt;状态：已完成&lt;/font&gt;" style="text;html=1;strokeColor=none;fillColor=none;align=center;verticalAlign=middle;whiteSpace=wrap;rounded=0;" parent="1" vertex="1">
          <mxGeometry x="1471.5" y="367" width="87" height="20" as="geometry" />
        </mxCell>
        <mxCell id="qzluck5pf1jZKNph7DdI-48" value="&lt;font color=&quot;#00cc00&quot;&gt;状态：已签收&lt;/font&gt;" style="text;html=1;strokeColor=none;fillColor=none;align=center;verticalAlign=middle;whiteSpace=wrap;rounded=0;" parent="1" vertex="1">
          <mxGeometry x="1331" y="367" width="87" height="20" as="geometry" />
        </mxCell>
        <mxCell id="qzluck5pf1jZKNph7DdI-52" value="" style="group" parent="1" vertex="1" connectable="0">
          <mxGeometry x="60" y="100" width="100" height="70" as="geometry" />
        </mxCell>
        <mxCell id="qzluck5pf1jZKNph7DdI-53" value="取消工单" style="rounded=1;whiteSpace=wrap;html=1;" parent="qzluck5pf1jZKNph7DdI-52" vertex="1">
          <mxGeometry width="100" height="50" as="geometry" />
        </mxCell>
        <mxCell id="qzluck5pf1jZKNph7DdI-54" value="&lt;font color=&quot;#00cc00&quot;&gt;状态：已取消&lt;/font&gt;" style="text;html=1;strokeColor=none;fillColor=none;align=center;verticalAlign=middle;whiteSpace=wrap;rounded=0;" parent="qzluck5pf1jZKNph7DdI-52" vertex="1">
          <mxGeometry x="6.5" y="50" width="87" height="20" as="geometry" />
        </mxCell>
        <mxCell id="qzluck5pf1jZKNph7DdI-56" value="&lt;font style=&quot;font-size: 24px&quot;&gt;结束&lt;/font&gt;" style="rounded=1;whiteSpace=wrap;html=1;" parent="1" vertex="1">
          <mxGeometry x="60" width="100" height="50" as="geometry" />
        </mxCell>
        <mxCell id="qzluck5pf1jZKNph7DdI-57" style="edgeStyle=orthogonalEdgeStyle;rounded=0;orthogonalLoop=1;jettySize=auto;html=1;entryX=0.5;entryY=1;entryDx=0;entryDy=0;" parent="1" source="qzluck5pf1jZKNph7DdI-53" target="qzluck5pf1jZKNph7DdI-56" edge="1">
          <mxGeometry relative="1" as="geometry" />
        </mxCell>
        <mxCell id="qzluck5pf1jZKNph7DdI-58" value="" style="group" parent="1" vertex="1" connectable="0">
          <mxGeometry x="200" y="100" width="100" height="70" as="geometry" />
        </mxCell>
        <mxCell id="qzluck5pf1jZKNph7DdI-59" value="取消工单" style="rounded=1;whiteSpace=wrap;html=1;" parent="qzluck5pf1jZKNph7DdI-58" vertex="1">
          <mxGeometry width="100" height="50" as="geometry" />
        </mxCell>
        <mxCell id="qzluck5pf1jZKNph7DdI-60" value="&lt;font color=&quot;#00cc00&quot;&gt;状态：已取消&lt;/font&gt;" style="text;html=1;strokeColor=none;fillColor=none;align=center;verticalAlign=middle;whiteSpace=wrap;rounded=0;" parent="qzluck5pf1jZKNph7DdI-58" vertex="1">
          <mxGeometry x="6.5" y="50" width="87" height="20" as="geometry" />
        </mxCell>
        <mxCell id="qzluck5pf1jZKNph7DdI-62" value="" style="group" parent="1" vertex="1" connectable="0">
          <mxGeometry x="343" y="100" width="100" height="70" as="geometry" />
        </mxCell>
        <mxCell id="qzluck5pf1jZKNph7DdI-63" value="取消工单" style="rounded=1;whiteSpace=wrap;html=1;" parent="qzluck5pf1jZKNph7DdI-62" vertex="1">
          <mxGeometry width="100" height="50" as="geometry" />
        </mxCell>
        <mxCell id="qzluck5pf1jZKNph7DdI-64" value="&lt;font color=&quot;#00cc00&quot;&gt;状态：已取消&lt;/font&gt;" style="text;html=1;strokeColor=none;fillColor=none;align=center;verticalAlign=middle;whiteSpace=wrap;rounded=0;" parent="qzluck5pf1jZKNph7DdI-62" vertex="1">
          <mxGeometry x="6.5" y="50" width="87" height="20" as="geometry" />
        </mxCell>
        <mxCell id="qzluck5pf1jZKNph7DdI-66" value="" style="group" parent="1" vertex="1" connectable="0">
          <mxGeometry x="625" y="197" width="100" height="70" as="geometry" />
        </mxCell>
        <mxCell id="qzluck5pf1jZKNph7DdI-67" value="取消工单" style="rounded=1;whiteSpace=wrap;html=1;" parent="qzluck5pf1jZKNph7DdI-66" vertex="1">
          <mxGeometry width="100" height="50" as="geometry" />
        </mxCell>
        <mxCell id="qzluck5pf1jZKNph7DdI-68" value="&lt;font color=&quot;#00cc00&quot;&gt;状态：已取消&lt;/font&gt;" style="text;html=1;strokeColor=none;fillColor=none;align=center;verticalAlign=middle;whiteSpace=wrap;rounded=0;" parent="qzluck5pf1jZKNph7DdI-66" vertex="1">
          <mxGeometry x="6.5" y="50" width="87" height="20" as="geometry" />
        </mxCell>
        <mxCell id="qzluck5pf1jZKNph7DdI-69" value="" style="group" parent="1" vertex="1" connectable="0">
          <mxGeometry x="765" y="197" width="100" height="70" as="geometry" />
        </mxCell>
        <mxCell id="qzluck5pf1jZKNph7DdI-70" value="取消工单" style="rounded=1;whiteSpace=wrap;html=1;" parent="qzluck5pf1jZKNph7DdI-69" vertex="1">
          <mxGeometry width="100" height="50" as="geometry" />
        </mxCell>
        <mxCell id="qzluck5pf1jZKNph7DdI-71" value="&lt;font color=&quot;#00cc00&quot;&gt;状态：已取消&lt;/font&gt;" style="text;html=1;strokeColor=none;fillColor=none;align=center;verticalAlign=middle;whiteSpace=wrap;rounded=0;" parent="qzluck5pf1jZKNph7DdI-69" vertex="1">
          <mxGeometry x="6.5" y="50" width="87" height="20" as="geometry" />
        </mxCell>
        <mxCell id="qzluck5pf1jZKNph7DdI-72" value="" style="group" parent="1" vertex="1" connectable="0">
          <mxGeometry x="1045" y="197" width="100" height="70" as="geometry" />
        </mxCell>
        <mxCell id="qzluck5pf1jZKNph7DdI-73" value="取消工单" style="rounded=1;whiteSpace=wrap;html=1;" parent="qzluck5pf1jZKNph7DdI-72" vertex="1">
          <mxGeometry width="100" height="50" as="geometry" />
        </mxCell>
        <mxCell id="qzluck5pf1jZKNph7DdI-74" value="&lt;font color=&quot;#00cc00&quot;&gt;状态：已取消&lt;/font&gt;" style="text;html=1;strokeColor=none;fillColor=none;align=center;verticalAlign=middle;whiteSpace=wrap;rounded=0;" parent="qzluck5pf1jZKNph7DdI-72" vertex="1">
          <mxGeometry x="6.5" y="50" width="87" height="20" as="geometry" />
        </mxCell>
        <mxCell id="qzluck5pf1jZKNph7DdI-75" value="" style="group" parent="1" vertex="1" connectable="0">
          <mxGeometry x="1185" y="197" width="100" height="70" as="geometry" />
        </mxCell>
        <mxCell id="qzluck5pf1jZKNph7DdI-76" value="取消工单" style="rounded=1;whiteSpace=wrap;html=1;" parent="qzluck5pf1jZKNph7DdI-75" vertex="1">
          <mxGeometry width="100" height="50" as="geometry" />
        </mxCell>
        <mxCell id="qzluck5pf1jZKNph7DdI-77" value="&lt;font color=&quot;#00cc00&quot;&gt;状态：已取消&lt;/font&gt;" style="text;html=1;strokeColor=none;fillColor=none;align=center;verticalAlign=middle;whiteSpace=wrap;rounded=0;" parent="qzluck5pf1jZKNph7DdI-75" vertex="1">
          <mxGeometry x="6.5" y="50" width="87" height="20" as="geometry" />
        </mxCell>
        <mxCell id="qzluck5pf1jZKNph7DdI-78" value="" style="group" parent="1" vertex="1" connectable="0">
          <mxGeometry x="1325" y="197" width="100" height="70" as="geometry" />
        </mxCell>
        <mxCell id="qzluck5pf1jZKNph7DdI-79" value="取消工单" style="rounded=1;whiteSpace=wrap;html=1;" parent="qzluck5pf1jZKNph7DdI-78" vertex="1">
          <mxGeometry width="100" height="50" as="geometry" />
        </mxCell>
        <mxCell id="qzluck5pf1jZKNph7DdI-80" value="&lt;font color=&quot;#00cc00&quot;&gt;状态：已取消&lt;/font&gt;" style="text;html=1;strokeColor=none;fillColor=none;align=center;verticalAlign=middle;whiteSpace=wrap;rounded=0;" parent="qzluck5pf1jZKNph7DdI-78" vertex="1">
          <mxGeometry x="6.5" y="50" width="87" height="20" as="geometry" />
        </mxCell>
        <mxCell id="2nJ9W9TssCf3HfaPloda-1" value="&lt;font color=&quot;#00cc00&quot;&gt;状态：已收货&lt;/font&gt;" style="text;html=1;strokeColor=none;fillColor=none;align=center;verticalAlign=middle;whiteSpace=wrap;rounded=0;" parent="1" vertex="1">
          <mxGeometry x="915" y="367" width="80" height="20" as="geometry" />
        </mxCell>
      </root>
    </mxGraphModel>
  </diagram>
</mxfile>
